<?xml version="1.0" standalone="no"?>
<!DOCTYPE svg PUBLIC "-//W3C//DTD SVG 20010904//EN"
 "http://www.w3.org/TR/2001/REC-SVG-20010904/DTD/svg10.dtd">
<svg version="1.0" xmlns="http://www.w3.org/2000/svg"
 width="512.000000pt" height="512.000000pt" viewBox="0 0 512.000000 512.000000"
 preserveAspectRatio="xMidYMid meet">
<metadata>
Created by potrace 1.16, written by Peter Selinger 2001-2019
</metadata>
<g transform="translate(0.000000,512.000000) scale(0.100000,-0.100000)"
fill="#000000" stroke="none">
<path d="M2317 4003 c-9 -2 -26 -22 -37 -42 -16 -32 -18 -51 -13 -111 l6 -72
73 -55 73 -55 124 7 124 7 7 -53 c9 -71 19 -87 34 -54 9 18 19 25 41 25 28 0
30 3 42 56 11 49 10 62 -5 109 -10 29 -22 58 -26 65 -4 6 -38 15 -76 21 -64 9
-73 13 -119 59 -49 48 -52 50 -82 38 -29 -11 -36 -9 -87 25 -31 20 -57 36 -58
36 -2 -1 -11 -3 -21 -6z"/>
<path d="M3485 3807 c-116 -39 -199 -111 -249 -217 -28 -58 -31 -75 -31 -160
0 -77 4 -106 24 -152 l23 -58 74 0 74 0 0 -71 0 -70 37 -15 c147 -62 320 -28
433 86 154 153 155 389 3 552 -69 73 -155 111 -263 115 -52 2 -101 -2 -125
-10z m-41 -307 c32 -50 61 -90 63 -90 3 0 2 41 -2 90 -6 75 -5 90 7 90 11 0
17 -19 22 -77 11 -131 9 -153 -14 -153 -14 0 -37 26 -77 87 l-58 86 -5 -88
c-3 -58 -9 -90 -17 -93 -10 -3 -13 25 -13 117 0 155 10 158 94 31z"/>
<path d="M1223 3737 c-153 -60 -183 -75 -182 -92 0 -11 15 -126 32 -255 l33
-234 59 -35 c37 -22 60 -30 63 -23 6 19 14 15 63 -30 25 -24 65 -54 88 -67
l43 -23 -3 36 c-5 48 16 70 31 32 5 -15 10 -32 10 -37 0 -5 3 -9 6 -9 3 0 66
36 140 81 94 56 135 87 139 102 2 12 9 74 15 137 6 63 13 136 16 163 l6 47
-61 0 -61 0 0 98 0 97 -120 43 c-65 23 -123 42 -127 41 -4 0 -90 -32 -190 -72z
m320 -293 c64 -143 117 -264 117 -267 0 -4 -19 -7 -43 -7 l-43 0 -26 63 -26
62 -48 3 c-27 1 -73 -1 -103 -5 l-54 -8 -20 -57 -21 -58 -43 0 c-24 0 -43 4
-43 9 0 4 14 41 31 82 17 41 64 157 106 259 85 210 83 205 92 193 4 -4 60
-125 124 -269z"/>
<path d="M2775 3203 c-5 -44 -28 -98 -100 -238 -52 -100 -106 -212 -120 -251
-14 -38 -47 -125 -72 -194 -25 -69 -47 -127 -49 -129 -3 -3 -9 0 -15 6 -11 11
2 157 56 625 8 70 15 134 15 142 0 9 -46 -16 -125 -70 -69 -46 -129 -84 -134
-84 -5 0 -45 -64 -89 -142 -145 -262 -201 -335 -242 -320 -11 4 -64 48 -117
98 -54 49 -103 93 -110 97 -8 5 -39 -27 -87 -86 -42 -52 -76 -97 -76 -100 0
-4 29 -43 65 -87 l66 -80 -47 0 c-45 0 -46 -1 -42 -27 3 -16 35 -125 73 -243
37 -118 81 -261 98 -317 l30 -103 199 0 199 0 -7 -97 c-8 -125 0 -148 55 -157
32 -5 41 -11 41 -26 0 -20 -56 -485 -65 -532 l-4 -28 198 0 198 0 9 58 10 57
29 -57 29 -58 173 0 c95 0 173 3 173 8 0 4 -16 141 -37 306 -41 332 -43 297
22 340 17 12 21 27 24 107 l3 94 93 135 c91 133 93 136 105 220 8 56 10 169 8
330 -4 233 -6 251 -35 367 -18 75 -41 139 -57 163 -14 22 -26 43 -26 47 -1 5
-49 42 -108 84 -91 65 -107 80 -104 101 2 18 -8 32 -35 54 -61 49 -60 49 -68
-13z m-5 -1497 c0 -17 -38 -28 -60 -16 -11 6 -49 0 -111 -15 -52 -14 -111 -25
-131 -25 -37 0 -38 -1 -38 -35 0 -35 0 -35 -45 -35 -25 0 -45 -4 -45 -9 0 -5
-9 -7 -19 -4 -17 4 -19 12 -15 57 3 28 7 57 10 64 2 9 45 12 166 13 90 0 186
4 213 9 74 11 75 11 75 -4z"/>
</g>
</svg>
